<svg viewBox="0 0 24 24" xmlns="http://www.w3.org/2000/svg" xmlns:svg="http://www.w3.org/2000/svg">
 <style type="text/css">.st0{fill:#E21D38;}
	.st1{fill:#797979;}
	.st2{font-family:&#x27;ArialMT&#x27;;}
	.st3{font-size:16.8708px;}</style>
 <g class="layer">
  <title>background</title>
  <rect fill="none" height="26" id="canvas_background" width="26" x="-1" y="-1"/>
 </g>
 <g class="layer">
  <title>Layer 1</title>
  <path class="st1" d="m6.62,12.41c3.68,0.38 5.1,1.63 5.03,3.34c-0.06,0.92 -0.78,1.8 -1.68,1.88c-1.08,0.09 -1.59,-0.46 -1.89,-1.04c-0.27,-0.55 -0.57,-1.09 -0.88,-1.68c-0.07,-0.17 -0.21,-0.04 -0.31,0.05c-0.24,0.25 -0.44,0.55 -0.64,0.79c-0.14,0.17 -0.1,0.3 -0.07,0.43c0.21,0.59 0.4,1.17 0.61,1.72c0.33,0.25 1.86,0.59 2.97,0.46c0.78,-0.08 1.72,-0.46 2.53,-1.17c0.78,-0.75 1.36,-1.76 1.45,-3.39c0.04,-1 -0.1,-2.05 -0.81,-3.01c-0.71,-0.95 -1.92,-1.76 -4.39,-1.97c0.14,-0.5 0.24,-0.95 0.37,-1.42c1.48,0.08 2.8,0.2 3.92,0.38c0.1,-0.55 0.13,-1.04 0.24,-1.55l-0.31,-0.46c-0.57,-0.08 -1.11,-0.25 -1.72,-0.34c-0.78,-0.12 -1.59,-0.2 -2.47,-0.25c-0.58,2.01 -1.26,4.56 -1.96,7.24m-0.99,-7.82c-0.27,0 -0.64,0.08 -1.25,0.26c-1.31,0.46 -2.94,1.59 -3.1,3.47c-0.04,0.3 -0.04,0.63 -0.07,0.92c-0.36,0.04 -0.71,0.08 -1.05,0.13c-0.03,0.38 -0.03,0.71 -0.06,1.08c0.33,-0.05 0.67,-0.05 1.05,-0.08c-0.07,1.97 0,3.93 0.13,5.77c0.03,0.3 0.03,0.55 0.03,0.72c-0.03,0.17 -0.27,0.25 -0.6,0.25l0.43,0.68c1.29,0.3 2.91,0.51 4.63,0.55c0,-0.21 0,-0.42 0,-0.63c-1.01,-0.08 -1.49,-0.25 -1.56,-0.51c-0.07,-0.21 -0.07,-0.5 -0.1,-0.79c-0.06,-1.93 -0.1,-4.01 -0.06,-6.15c0.57,0 1.15,0 1.72,-0.04c0.31,-0.17 0.57,-0.34 0.85,-0.51c0,-0.25 0,-0.51 0,-0.71c-0.88,0 -1.72,0.04 -2.57,0.04c0.03,-0.88 0.06,-1.72 0.1,-2.5c0.04,-0.55 0.33,-0.92 0.61,-0.92c0.47,-0.05 0.92,0.2 1.36,0.46c0.24,0.12 0.47,0.3 0.71,0.42c0.1,0.05 0.24,0.08 0.33,-0.04c0.14,-0.21 0.27,-0.43 0.4,-0.59c0.07,-0.13 0.03,-0.21 0,-0.25c-0.31,-0.3 -0.57,-0.55 -0.88,-0.83c-0.17,-0.17 -0.47,-0.17 -0.74,-0.17c-0.12,-0.04 -0.22,0 -0.32,0" id="XMLID_6_"/>
  <path d="m23.78,2.44c-0.08,-0.08 -0.17,-0.11 -0.27,-0.08l-3.5,0.93l-3.5,-0.93c-0.09,-0.02 -0.19,0 -0.27,0.08c-0.08,0.08 -0.12,0.18 -0.12,0.3l0,0.2c0,3.59 0.4,7.15 1.18,10.6l0.59,2.6l0,1.94c0,1.42 0.95,2.57 2.11,2.57c1.17,0 2.11,-1.15 2.11,-2.57l0,-1.94l0.59,-2.6c0.79,-3.46 1.18,-7.02 1.18,-10.6l0,-0.2c0,-0.12 -0.04,-0.23 -0.12,-0.3l0,0l0.02,0zm-5.24,13.27l0,-2.78l0.73,-0.89l1.48,0l0.73,0.89l0,2.78l-2.94,0l0,0zm0.92,0.79l1.1,0l0,1.5c0,0.37 -0.25,0.67 -0.55,0.67s-0.55,-0.3 -0.55,-0.67l0,-1.5l0,0l0,0zm0.55,3.39l0,0c-0.81,0 -1.47,-0.81 -1.47,-1.8l0,-1.59l0.28,0l0,1.5c0,0.81 0.54,1.45 1.19,1.45c0.66,0 1.19,-0.66 1.19,-1.45l0,-1.5l0.28,0l0,1.59c0,0.99 -0.66,1.8 -1.47,1.8zm2.11,-6.66l0,-0.45c0,-0.11 -0.03,-0.2 -0.09,-0.28l-0.92,-1.12c-0.06,-0.08 -0.14,-0.12 -0.23,-0.12l-1.75,0c-0.08,0 -0.17,0.04 -0.23,0.12l-0.92,1.12c-0.06,0.08 -0.09,0.17 -0.09,0.28l0,0.45c-0.73,-3.25 -1.11,-6.61 -1.13,-9.99l2.93,0.78l0,2.88c0,0.22 0.14,0.39 0.32,0.39c0.18,0 0.32,-0.17 0.32,-0.39l0,-2.88l2.93,-0.78c-0.02,3.37 -0.4,6.73 -1.13,9.99l-0.01,0z" fill="#797979" id="svg_9"/>
  <path d="m19.98,7.77c-0.19,0 -0.33,0.2 -0.33,0.46l0,0.19c0,0.25 0.15,0.46 0.33,0.46c0.19,0 0.33,-0.2 0.33,-0.46l0,-0.19c0,-0.25 -0.15,-0.46 -0.33,-0.46z" fill="#797979" id="svg_10"/>
 </g>
</svg>