<svg viewBox="0 0 24 24" xmlns="http://www.w3.org/2000/svg" xmlns:svg="http://www.w3.org/2000/svg">
 <style type="text/css">.st0{fill:#E21D38;}
	.st1{fill:#797979;}
	.st2{font-family:&#x27;ArialMT&#x27;;}
	.st3{font-size:16.8708px;}</style>
 <g class="layer">
  <title>background</title>
  <rect fill="none" height="26" id="canvas_background" width="26" x="-1" y="-1"/>
 </g>
 <g class="layer">
  <title>Layer 1</title>
  <path class="st1" d="m6.72,7.98c3.74,0.38 5.18,1.64 5.11,3.36c-0.06,0.93 -0.79,1.81 -1.71,1.89c-1.1,0.09 -1.61,-0.46 -1.92,-1.05c-0.27,-0.55 -0.58,-1.1 -0.89,-1.69c-0.07,-0.17 -0.21,-0.04 -0.31,0.05c-0.24,0.25 -0.45,0.55 -0.65,0.8c-0.14,0.17 -0.1,0.3 -0.07,0.43c0.21,0.59 0.41,1.18 0.62,1.73c0.34,0.25 1.89,0.59 3.02,0.46c0.79,-0.08 1.75,-0.46 2.57,-1.18c0.79,-0.76 1.38,-1.77 1.47,-3.41c0.04,-1.01 -0.1,-2.06 -0.82,-3.03c-0.72,-0.96 -1.95,-1.77 -4.46,-1.98c0.14,-0.5 0.24,-0.96 0.38,-1.43c1.5,0.08 2.84,0.2 3.98,0.38c0.1,-0.55 0.13,-1.05 0.24,-1.56l-0.31,-0.46c-0.58,-0.08 -1.13,-0.25 -1.75,-0.34c-0.79,-0.12 -1.61,-0.2 -2.51,-0.25c-0.59,2.02 -1.28,4.59 -1.99,7.29m-1,-7.87c-0.27,0 -0.65,0.08 -1.27,0.26c-1.33,0.46 -2.98,1.6 -3.15,3.49c-0.04,0.3 -0.04,0.63 -0.07,0.93c-0.37,0.04 -0.72,0.08 -1.07,0.13c-0.03,0.38 -0.03,0.71 -0.06,1.09c0.34,-0.05 0.68,-0.05 1.07,-0.08c-0.07,1.98 0,3.96 0.13,5.81c0.03,0.3 0.03,0.55 0.03,0.72c-0.03,0.17 -0.27,0.25 -0.61,0.25l0.44,0.68c1.31,0.3 2.95,0.51 4.7,0.55c0,-0.21 0,-0.42 0,-0.63c-1.03,-0.08 -1.51,-0.25 -1.58,-0.51c-0.07,-0.21 -0.07,-0.5 -0.1,-0.8c-0.06,-1.94 -0.1,-4.04 -0.06,-6.19c0.58,0 1.17,0 1.75,-0.04c0.31,-0.17 0.58,-0.34 0.86,-0.51c0,-0.25 0,-0.51 0,-0.71c-0.89,0 -1.75,0.04 -2.61,0.04c0.03,-0.89 0.06,-1.73 0.1,-2.52c0.04,-0.55 0.34,-0.93 0.62,-0.93c0.48,-0.05 0.93,0.2 1.38,0.46c0.24,0.12 0.48,0.3 0.72,0.42c0.1,0.05 0.24,0.08 0.34,-0.04c0.14,-0.21 0.27,-0.43 0.41,-0.59c0.07,-0.13 0.03,-0.21 0,-0.25c-0.31,-0.3 -0.58,-0.55 -0.89,-0.84c-0.17,-0.17 -0.48,-0.17 -0.75,-0.17c-0.12,-0.04 -0.22,0 -0.32,0" id="XMLID_6_"/>
 </g>
 <g class="layer">
  <title>Layer 2</title>
  <g id="SVGRepo_bgCarrier" stroke-width="0"/>
  <g id="SVGRepo_tracerCarrier" stroke="#656565" stroke-linecap="round" stroke-linejoin="round" stroke-width="1.02"/>
  <g id="svg_11" fill="#656565">
   <path d="m21.8,19.76l0.6,-2.46c0.78,-3.17 1.17,-6.45 1.17,-9.75l0,-0.19l-3.57,0.88l-3.57,-0.88l0,0.19c0,3.29 0.39,6.57 1.17,9.75l0.6,2.46l3.58,0z" fill="rgba(255,146,30,0.617)" id="svg_4"/>
   <path d="m20.01,23.63l0,0c-0.99,0 -1.79,-0.91 -1.79,-2.03l0,-4.94c0.36,-0.41 0.56,-0.63 0.92,-1.04l1.75,0c0.36,0.41 0.56,0.63 0.92,1.04l0,4.94c0,1.12 -0.8,2.03 -1.79,2.03l0,0z" fill="rgba(13,150,188,0.521)" id="svg_5"/>
   <path d="m20.88,19.76l0,1.76c0,0.55 -0.39,0.99 -0.87,0.99l0,0c-0.48,0 -0.87,-0.44 -0.87,-0.99l0,-1.76l1.74,0l0,0l0,0z" fill="#656565" id="svg_6"/>
   <path d="m23.78,7.07c-0.08,-0.07 -0.17,-0.1 -0.27,-0.07l-3.5,0.86l-3.5,-0.86c-0.09,-0.02 -0.19,0 -0.27,0.07c-0.08,0.07 -0.12,0.17 -0.12,0.28l0,0.19c0,3.33 0.4,6.64 1.18,9.84l0.59,2.41l0,1.8c0,1.32 0.95,2.39 2.11,2.39c1.17,0 2.11,-1.07 2.11,-2.39l0,-1.8l0.59,-2.41c0.79,-3.21 1.18,-6.52 1.18,-9.84l0,-0.19c0,-0.11 -0.04,-0.21 -0.12,-0.28l0,0zm-5.24,12.32l0,-2.58l0.73,-0.83l1.48,0l0.73,0.83l0,2.58l-2.94,0l0,0zm0.92,0.73l1.1,0l0,1.39c0,0.34 -0.25,0.62 -0.55,0.62s-0.55,-0.28 -0.55,-0.62l0,-1.39l0,0l0,0zm0.55,3.15l0,0c-0.81,0 -1.47,-0.75 -1.47,-1.67l0,-1.48l0.28,0l0,1.39c0,0.75 0.54,1.35 1.19,1.35c0.66,0 1.19,-0.61 1.19,-1.35l0,-1.39l0.28,0l0,1.48c0,0.92 -0.66,1.67 -1.47,1.67zm2.11,-6.18l0,-0.42c0,-0.1 -0.03,-0.19 -0.09,-0.26l-0.92,-1.04c-0.06,-0.07 -0.14,-0.11 -0.23,-0.11l-1.75,0c-0.08,0 -0.17,0.04 -0.23,0.11l-0.92,1.04c-0.06,0.07 -0.09,0.16 -0.09,0.26l0,0.42c-0.73,-3.02 -1.11,-6.14 -1.13,-9.28l2.93,0.72l0,2.67c0,0.2 0.14,0.36 0.32,0.36c0.18,0 0.32,-0.16 0.32,-0.36l0,-2.67l2.93,-0.72c-0.02,3.13 -0.4,6.25 -1.13,9.28z" id="svg_9"/>
   <path d="m20.01,11.97c-0.18,0 -0.32,0.16 -0.32,0.36l0,0.15c0,0.2 0.14,0.36 0.32,0.36c0.18,0 0.32,-0.16 0.32,-0.36l0,-0.15c0,-0.2 -0.14,-0.36 -0.32,-0.36z" id="svg_10"/>
  </g>
 </g>
</svg>